<?xml version="1.0" encoding="utf-8"?><svg xmlns="http://www.w3.org/2000/svg" xmlns:xlink="http://www.w3.org/1999/xlink" width="200" height="200" viewBox="0 0 1250 1250"><symbol id="symbol_29" viewBox="0 0 350 350"><path d="M177 109.402L175.5 108.536L174 109.402L119.007 141.152L117.507 142.018V143.75V207.25V208.982L119.007 209.848L174 241.598L175.5 242.464L177 241.598L231.993 209.848L233.493 208.982V207.25V143.75V142.018L231.993 141.152L177 109.402Z" style="fill: #D81E25; stroke: black; stroke-width: 6" /><path d="M230.493 207.25V143.75L120.507 207.25L175.5 239L230.493 207.25Z" style="fill: #C1171D" /><path d="M230.493 207.25L175.5 175.5L230.493 143.75V207.25Z" style="fill-rule: evenodd; clip-rule: evenodd; fill: #ED3E45" /><rect x="159" y="9" width="33" height="33" style="fill: #1E8BD8; stroke: black; stroke-width: 6" /><rect x="159" y="309" width="33" height="33" style="fill: #1E8BD8; stroke: black; stroke-width: 6" /><rect x="10" y="159" width="33" height="33" style="fill: #1E8BD8; stroke: black; stroke-width: 6" /><rect x="308" y="159" width="33" height="33" style="fill: #1E8BD8; stroke: black; stroke-width: 6" /></symbol><symbol id="symbol_2a" viewBox="0 0 350 350"><path d="M177 109.402L175.5 108.536L174 109.402L119.007 141.152L117.507 142.018V143.75V207.25V208.982L119.007 209.848L174 241.598L175.5 242.464L177 241.598L231.993 209.848L233.493 208.982V207.25V143.75V142.018L231.993 141.152L177 109.402Z" style="fill: #D81E25; stroke: black; stroke-width: 6" /><path d="M230.493 207.25V143.75L120.507 207.25L175.5 239L230.493 207.25Z" style="fill: #C1171D" /><path d="M230.493 207.25L175.5 175.5L230.493 143.75V207.25Z" style="fill-rule: evenodd; clip-rule: evenodd; fill: #ED3E45" /><rect x="159" y="9" width="33" height="33" style="fill: #1E8BD8; stroke: black; stroke-width: 6" /><rect x="159" y="309" width="33" height="33" style="fill: #1E8BD8; stroke: black; stroke-width: 6" /><rect x="10" y="159" width="33" height="33" style="fill: #1E8BD8; stroke: black; stroke-width: 6" /><rect x="308" y="159" width="33" height="33" style="fill: #1E8BD8; stroke: black; stroke-width: 6" /></symbol><symbol id="symbol_2b" viewBox="0 0 350 350"><path d="M177 109.402L175.5 108.536L174 109.402L119.007 141.152L117.507 142.018V143.75V207.25V208.982L119.007 209.848L174 241.598L175.5 242.464L177 241.598L231.993 209.848L233.493 208.982V207.25V143.75V142.018L231.993 141.152L177 109.402Z" style="fill: #D81E25; stroke: black; stroke-width: 6" /><path d="M230.493 207.25V143.75L120.507 207.25L175.5 239L230.493 207.25Z" style="fill: #C1171D" /><path d="M230.493 207.25L175.5 175.5L230.493 143.75V207.25Z" style="fill-rule: evenodd; clip-rule: evenodd; fill: #ED3E45" /><rect x="159" y="9" width="33" height="33" style="fill: #1E8BD8; stroke: black; stroke-width: 6" /><rect x="159" y="309" width="33" height="33" style="fill: #1E8BD8; stroke: black; stroke-width: 6" /><rect x="10" y="159" width="33" height="33" style="fill: #1E8BD8; stroke: black; stroke-width: 6" /><rect x="308" y="159" width="33" height="33" style="fill: #1E8BD8; stroke: black; stroke-width: 6" /></symbol><symbol id="symbol_1Y" viewBox="0 0 50 50"><path d="M35.2929 20.0503L29.9497 14.7071C27.2161 11.9734 22.7839 11.9734 20.0503 14.7071L14.7071 20.0503C11.9734 22.7839 11.9734 27.2161 14.7071 29.9497L20.0503 35.2929C22.7839 38.0266 27.2161 38.0266 29.9497 35.2929L35.2929 29.9497C38.0266 27.2161 38.0266 22.7839 35.2929 20.0503Z" style="fill: #ED3E45; stroke: black; stroke-width: 6" /></symbol><symbol id="symbol_1Z" viewBox="0 0 50 50"><path d="M27.1213 9.87868L25 7.75736L22.8787 9.87868L9.87868 22.8787L7.75736 25L9.87868 27.1213L22.8787 40.1213L25 42.2426L27.1213 40.1213L40.1213 27.1213L42.2426 25L40.1213 22.8787L27.1213 9.87868Z" style="fill: #ED3E45; stroke: black; stroke-width: 6" /></symbol><symbol id="symbol_20" viewBox="0 0 50 50"><rect x="12" y="12" width="26" height="26" style="fill: #ED3E45; stroke: black; stroke-width: 6" /></symbol><symbol id="symbol_21" viewBox="0 0 50 50"><rect x="12" y="12" width="26" height="26" style="fill: #1E8BD8; stroke: black; stroke-width: 6" /></symbol><symbol id="symbol_22" viewBox="0 0 50 50"><path d="M27.1213 9.87868L25 7.75736L22.8787 9.87868L9.87868 22.8787L7.75736 25L9.87868 27.1213L22.8787 40.1213L25 42.2426L27.1213 40.1213L40.1213 27.1213L42.2426 25L40.1213 22.8787L27.1213 9.87868Z" style="fill: #1E8BD8; stroke: black; stroke-width: 6" /></symbol><symbol id="symbol_23" viewBox="0 0 50 50"><path d="M35.2929 20.0503L29.9497 14.7071C27.2161 11.9734 22.7839 11.9734 20.0503 14.7071L14.7071 20.0503C11.9734 22.7839 11.9734 27.2161 14.7071 29.9497L20.0503 35.2929C22.7839 38.0266 27.2161 38.0266 29.9497 35.2929L35.2929 29.9497C38.0266 27.2161 38.0266 22.7839 35.2929 20.0503Z" style="fill: #1E8BD8; stroke: black; stroke-width: 6" /></symbol><symbol id="symbol_24" viewBox="0 0 100 100"><rect x="10.7574" y="71" width="84.7972" height="26" transform="rotate(-45 10.7574 71)" style="fill: #1E8BD8; stroke: black; stroke-width: 6" /><path d="M15.718 70L15 70.718L22.282 78H36.0023L44.0023 70H15.718ZM31.718 54L23.718 62H52.0023L60.0023 54H31.718ZM76.0023 38L68.0023 46H39.718L47.718 38H76.0023ZM77.718 22L84.8602 29.1421L84.0023 30H55.718L63.718 22H77.718Z" style="fill-rule: evenodd; clip-rule: evenodd; fill: #0855C2" /></symbol><symbol id="symbol_25" viewBox="0 0 100 50"><path d="M15 9V6H18H82H85V9C85 28.33 69.33 44 50 44C30.67 44 15 28.33 15 9Z" style="fill: #0303AC; stroke: black; stroke-width: 6" /></symbol><symbol id="symbol_26" viewBox="0 0 100 50"><path d="M15 9V6H18H82H85V9C85 28.33 69.33 44 50 44C30.67 44 15 28.33 15 9Z" style="fill: #1E8BD8; stroke: black; stroke-width: 6" /></symbol><symbol id="symbol_27" viewBox="0 0 100 50"><path d="M15 9V6H18H82H85V9C85 28.33 69.33 44 50 44C30.67 44 15 28.33 15 9Z" style="fill: #0855C2; stroke: black; stroke-width: 6" /></symbol><symbol id="symbol_28" viewBox="0 0 100 100"><mask id="path-1-outside-1_22_59" maskUnits="userSpaceOnUse" x="4" y="4" width="92" height="92" style="fill: black"><rect x="4" y="4" width="92" height="92" style="fill: white" /><path d="M50 90C72.0914 90 90 72.0914 90 50C90 27.9086 72.0914 10 50 10C27.9086 10 10 27.9086 10 50C10 72.0914 27.9086 90 50 90ZM50 75C63.8071 75 75 63.8071 75 50C75 36.1929 63.8071 25 50 25C36.1929 25 25 36.1929 25 50C25 63.8071 36.1929 75 50 75Z" style="fill-rule: evenodd; clip-rule: evenodd" />


</mask><path d="M50 90C72.0914 90 90 72.0914 90 50C90 27.9086 72.0914 10 50 10C27.9086 10 10 27.9086 10 50C10 72.0914 27.9086 90 50 90ZM50 75C63.8071 75 75 63.8071 75 50C75 36.1929 63.8071 25 50 25C36.1929 25 25 36.1929 25 50C25 63.8071 36.1929 75 50 75Z" style="fill-rule: evenodd; clip-rule: evenodd; fill: #F29E27" /><path d="M84 50C84 68.7777 68.7777 84 50 84V96C75.4051 96 96 75.4051 96 50H84ZM50 16C68.7777 16 84 31.2223 84 50H96C96 24.5949 75.4051 4 50 4V16ZM16 50C16 31.2223 31.2223 16 50 16V4C24.5949 4 4 24.5949 4 50H16ZM50 84C31.2223 84 16 68.7777 16 50H4C4 75.4051 24.5949 96 50 96V84ZM69 50C69 60.4934 60.4934 69 50 69V81C67.1208 81 81 67.1208 81 50H69ZM50 31C60.4934 31 69 39.5066 69 50H81C81 32.8792 67.1208 19 50 19V31ZM31 50C31 39.5066 39.5066 31 50 31V19C32.8792 19 19 32.8792 19 50H31ZM50 69C39.5066 69 31 60.4934 31 50H19C19 67.1208 32.8792 81 50 81V69Z" style="fill: black; mask: url(#path-1-outside-1_22_59)" /></symbol><g id="qr"><g id="qr_blocks"><use xlink:href="#symbol_1Y" x="550" y="0" width="50" height="50" /><use xlink:href="#symbol_1Z" x="600" y="0" width="50" height="50" /><use xlink:href="#symbol_24" x="700" y="0" width="100" height="100" /><use xlink:href="#symbol_24" x="400" y="50" width="100" height="100" /><use xlink:href="#symbol_22" x="500" y="50" width="50" height="50" /><use xlink:href="#symbol_20" x="550" y="50" width="50" height="50" /><use xlink:href="#symbol_1Y" x="550" y="100" width="50" height="50" /><use xlink:href="#symbol_25" x="650" y="100" width="100" height="50" /><use xlink:href="#symbol_22" x="750" y="100" width="50" height="50" /><use xlink:href="#symbol_25" x="450" y="150" width="100" height="50" /><use xlink:href="#symbol_22" x="550" y="150" width="50" height="50" /><use xlink:href="#symbol_24" x="600" y="150" width="100" height="100" /><use xlink:href="#symbol_21" x="700" y="150" width="50" height="50" /><use xlink:href="#symbol_25" x="750" y="150" width="100" height="50" /><use xlink:href="#symbol_22" x="750" y="200" width="50" height="50" /><use xlink:href="#symbol_1Y" x="800" y="200" width="50" height="50" /><use xlink:href="#symbol_24" x="500" y="250" width="100" height="100" /><use xlink:href="#symbol_1Y" x="600" y="250" width="50" height="50" /><use xlink:href="#symbol_24" x="700" y="250" width="100" height="100" /><use xlink:href="#symbol_1Y" x="400" y="300" width="50" height="50" /><use xlink:href="#symbol_23" x="600" y="300" width="50" height="50" /><use xlink:href="#symbol_22" x="800" y="300" width="50" height="50" /><use xlink:href="#symbol_23" x="400" y="350" width="50" height="50" /><use xlink:href="#symbol_1Z" x="500" y="350" width="50" height="50" /><use xlink:href="#symbol_23" x="600" y="350" width="50" height="50" /><use xlink:href="#symbol_22" x="800" y="350" width="50" height="50" /><use xlink:href="#symbol_1Y" x="0" y="400" width="50" height="50" /><use xlink:href="#symbol_1Z" x="50" y="400" width="50" height="50" /><use xlink:href="#symbol_1Y" x="100" y="400" width="50" height="50" /><use xlink:href="#symbol_1Y" x="200" y="400" width="50" height="50" /><use xlink:href="#symbol_25" x="250" y="400" width="100" height="50" /><use xlink:href="#symbol_21" x="350" y="400" width="50" height="50" /><use xlink:href="#symbol_22" x="400" y="400" width="50" height="50" /><use xlink:href="#symbol_24" x="450" y="400" width="100" height="100" /><use xlink:href="#symbol_20" x="650" y="400" width="50" height="50" /><use xlink:href="#symbol_23" x="800" y="400" width="50" height="50" /><use xlink:href="#symbol_26" x="850" y="400" width="100" height="50" /><use xlink:href="#symbol_22" x="1100" y="400" width="50" height="50" /><use xlink:href="#symbol_22" x="100" y="450" width="50" height="50" /><use xlink:href="#symbol_22" x="350" y="450" width="50" height="50" /><use xlink:href="#symbol_22" x="400" y="450" width="50" height="50" /><use xlink:href="#symbol_26" x="600" y="450" width="100" height="50" /><use xlink:href="#symbol_22" x="700" y="450" width="50" height="50" /><use xlink:href="#symbol_21" x="800" y="450" width="50" height="50" /><use xlink:href="#symbol_1Z" x="900" y="450" width="50" height="50" /><use xlink:href="#symbol_22" x="1000" y="450" width="50" height="50" /><use xlink:href="#symbol_1Z" x="1150" y="450" width="50" height="50" /><use xlink:href="#symbol_22" x="0" y="500" width="50" height="50" /><use xlink:href="#symbol_24" x="100" y="500" width="100" height="100" /><use xlink:href="#symbol_26" x="300" y="500" width="100" height="50" /><use xlink:href="#symbol_24" x="450" y="500" width="100" height="100" /><use xlink:href="#symbol_23" x="650" y="500" width="50" height="50" /><use xlink:href="#symbol_24" x="700" y="500" width="100" height="100" /><use xlink:href="#symbol_22" x="800" y="500" width="50" height="50" /><use xlink:href="#symbol_1Y" x="850" y="500" width="50" height="50" /><use xlink:href="#symbol_20" x="900" y="500" width="50" height="50" /><use xlink:href="#symbol_20" x="1050" y="500" width="50" height="50" /><use xlink:href="#symbol_24" x="0" y="550" width="100" height="100" /><use xlink:href="#symbol_20" x="200" y="550" width="50" height="50" /><use xlink:href="#symbol_24" x="300" y="550" width="100" height="100" /><use xlink:href="#symbol_21" x="400" y="550" width="50" height="50" /><use xlink:href="#symbol_21" x="550" y="550" width="50" height="50" /><use xlink:href="#symbol_21" x="600" y="550" width="50" height="50" /><use xlink:href="#symbol_22" x="650" y="550" width="50" height="50" /><use xlink:href="#symbol_20" x="900" y="550" width="50" height="50" /><use xlink:href="#symbol_20" x="950" y="550" width="50" height="50" /><use xlink:href="#symbol_25" x="1150" y="550" width="100" height="50" /><use xlink:href="#symbol_1Y" x="100" y="600" width="50" height="50" /><use xlink:href="#symbol_1Z" x="200" y="600" width="50" height="50" /><use xlink:href="#symbol_23" x="250" y="600" width="50" height="50" /><use xlink:href="#symbol_24" x="450" y="600" width="100" height="100" /><use xlink:href="#symbol_20" x="700" y="600" width="50" height="50" /><use xlink:href="#symbol_1Z" x="900" y="600" width="50" height="50" /><use xlink:href="#symbol_22" x="950" y="600" width="50" height="50" /><use xlink:href="#symbol_1Z" x="1100" y="600" width="50" height="50" /><use xlink:href="#symbol_1Z" x="1150" y="600" width="50" height="50" /><use xlink:href="#symbol_21" x="1200" y="600" width="50" height="50" /><use xlink:href="#symbol_24" x="0" y="650" width="100" height="100" /><use xlink:href="#symbol_23" x="100" y="650" width="50" height="50" /><use xlink:href="#symbol_20" x="250" y="650" width="50" height="50" /><use xlink:href="#symbol_27" x="550" y="650" width="100" height="50" /><use xlink:href="#symbol_26" x="650" y="650" width="100" height="50" /><use xlink:href="#symbol_22" x="750" y="650" width="50" height="50" /><use xlink:href="#symbol_1Y" x="1000" y="650" width="50" height="50" /><use xlink:href="#symbol_20" x="1150" y="650" width="50" height="50" /><use xlink:href="#symbol_1Y" x="1200" y="650" width="50" height="50" /><use xlink:href="#symbol_23" x="100" y="700" width="50" height="50" /><use xlink:href="#symbol_25" x="150" y="700" width="100" height="50" /><use xlink:href="#symbol_25" x="250" y="700" width="100" height="50" /><use xlink:href="#symbol_24" x="350" y="700" width="100" height="100" /><use xlink:href="#symbol_23" x="500" y="700" width="50" height="50" /><use xlink:href="#symbol_22" x="650" y="700" width="50" height="50" /><use xlink:href="#symbol_23" x="700" y="700" width="50" height="50" /><use xlink:href="#symbol_23" x="850" y="700" width="50" height="50" /><use xlink:href="#symbol_1Y" x="900" y="700" width="50" height="50" /><use xlink:href="#symbol_21" x="1050" y="700" width="50" height="50" /><use xlink:href="#symbol_22" x="1150" y="700" width="50" height="50" /><use xlink:href="#symbol_24" x="0" y="750" width="100" height="100" /><use xlink:href="#symbol_20" x="200" y="750" width="50" height="50" /><use xlink:href="#symbol_21" x="800" y="750" width="50" height="50" /><use xlink:href="#symbol_21" x="850" y="750" width="50" height="50" /><use xlink:href="#symbol_22" x="900" y="750" width="50" height="50" /><use xlink:href="#symbol_1Y" x="950" y="750" width="50" height="50" /><use xlink:href="#symbol_23" x="250" y="800" width="50" height="50" /><use xlink:href="#symbol_1Z" x="300" y="800" width="50" height="50" /><use xlink:href="#symbol_22" x="350" y="800" width="50" height="50" /><use xlink:href="#symbol_24" x="400" y="800" width="100" height="100" /><use xlink:href="#symbol_22" x="500" y="800" width="50" height="50" /><use xlink:href="#symbol_21" x="650" y="800" width="50" height="50" /><use xlink:href="#symbol_20" x="800" y="800" width="50" height="50" /><use xlink:href="#symbol_1Z" x="850" y="800" width="50" height="50" /><use xlink:href="#symbol_23" x="900" y="800" width="50" height="50" /><use xlink:href="#symbol_23" x="950" y="800" width="50" height="50" /><use xlink:href="#symbol_23" x="1000" y="800" width="50" height="50" /><use xlink:href="#symbol_22" x="1100" y="800" width="50" height="50" /><use xlink:href="#symbol_24" x="1150" y="800" width="100" height="100" /><use xlink:href="#symbol_1Z" x="500" y="850" width="50" height="50" /><use xlink:href="#symbol_20" x="600" y="850" width="50" height="50" /><use xlink:href="#symbol_22" x="650" y="850" width="50" height="50" /><use xlink:href="#symbol_21" x="700" y="850" width="50" height="50" /><use xlink:href="#symbol_1Z" x="800" y="850" width="50" height="50" /><use xlink:href="#symbol_23" x="1000" y="850" width="50" height="50" /><use xlink:href="#symbol_25" x="400" y="900" width="100" height="50" /><use xlink:href="#symbol_23" x="500" y="900" width="50" height="50" /><use xlink:href="#symbol_1Z" x="550" y="900" width="50" height="50" /><use xlink:href="#symbol_1Y" x="600" y="900" width="50" height="50" /><use xlink:href="#symbol_1Z" x="800" y="900" width="50" height="50" /><use xlink:href="#symbol_20" x="900" y="900" width="50" height="50" /><use xlink:href="#symbol_28" x="1000" y="900" width="100" height="100" /><use xlink:href="#symbol_20" x="1150" y="900" width="50" height="50" /><use xlink:href="#symbol_22" x="1200" y="900" width="50" height="50" /><use xlink:href="#symbol_26" x="400" y="950" width="100" height="50" /><use xlink:href="#symbol_27" x="500" y="950" width="100" height="50" /><use xlink:href="#symbol_23" x="600" y="950" width="50" height="50" /><use xlink:href="#symbol_21" x="650" y="950" width="50" height="50" /><use xlink:href="#symbol_21" x="700" y="950" width="50" height="50" /><use xlink:href="#symbol_27" x="750" y="950" width="100" height="50" /><use xlink:href="#symbol_24" x="1100" y="950" width="100" height="100" /><use xlink:href="#symbol_1Z" x="1200" y="950" width="50" height="50" /><use xlink:href="#symbol_22" x="400" y="1000" width="50" height="50" /><use xlink:href="#symbol_1Z" x="450" y="1000" width="50" height="50" /><use xlink:href="#symbol_22" x="500" y="1000" width="50" height="50" /><use xlink:href="#symbol_20" x="600" y="1000" width="50" height="50" /><use xlink:href="#symbol_27" x="800" y="1000" width="100" height="50" /><use xlink:href="#symbol_1Z" x="900" y="1000" width="50" height="50" /><use xlink:href="#symbol_1Z" x="950" y="1000" width="50" height="50" /><use xlink:href="#symbol_23" x="1000" y="1000" width="50" height="50" /><use xlink:href="#symbol_23" x="450" y="1050" width="50" height="50" /><use xlink:href="#symbol_27" x="550" y="1050" width="100" height="50" /><use xlink:href="#symbol_28" x="650" y="1050" width="100" height="100" /><use xlink:href="#symbol_1Y" x="800" y="1050" width="50" height="50" /><use xlink:href="#symbol_21" x="900" y="1050" width="50" height="50" /><use xlink:href="#symbol_26" x="950" y="1050" width="100" height="50" /><use xlink:href="#symbol_26" x="400" y="1100" width="100" height="50" /><use xlink:href="#symbol_22" x="750" y="1100" width="50" height="50" /><use xlink:href="#symbol_28" x="800" y="1100" width="100" height="100" /><use xlink:href="#symbol_22" x="900" y="1100" width="50" height="50" /><use xlink:href="#symbol_20" x="1050" y="1100" width="50" height="50" /><use xlink:href="#symbol_1Y" x="1200" y="1100" width="50" height="50" /><use xlink:href="#symbol_22" x="400" y="1150" width="50" height="50" /><use xlink:href="#symbol_23" x="500" y="1150" width="50" height="50" /><use xlink:href="#symbol_26" x="600" y="1150" width="100" height="50" /><use xlink:href="#symbol_23" x="700" y="1150" width="50" height="50" /><use xlink:href="#symbol_1Y" x="750" y="1150" width="50" height="50" /><use xlink:href="#symbol_21" x="1000" y="1150" width="50" height="50" /><use xlink:href="#symbol_1Y" x="1050" y="1150" width="50" height="50" /><use xlink:href="#symbol_1Y" x="1200" y="1150" width="50" height="50" /><use xlink:href="#symbol_23" x="400" y="1200" width="50" height="50" /><use xlink:href="#symbol_26" x="450" y="1200" width="100" height="50" /><use xlink:href="#symbol_20" x="650" y="1200" width="50" height="50" /><use xlink:href="#symbol_1Y" x="700" y="1200" width="50" height="50" /><use xlink:href="#symbol_1Z" x="750" y="1200" width="50" height="50" /><use xlink:href="#symbol_25" x="1000" y="1200" width="100" height="50" /><use xlink:href="#symbol_27" x="1150" y="1200" width="100" height="50" /></g><g id="qr_eyes"><use xlink:href="#symbol_29" x="0" y="0" width="350" height="350" /><use xlink:href="#symbol_2a" x="900" y="0" width="350" height="350" /><use xlink:href="#symbol_2b" x="0" y="900" width="350" height="350" /></g></g></svg>