<?xml version="1.0" encoding="utf-8"?><svg xmlns="http://www.w3.org/2000/svg" xmlns:xlink="http://www.w3.org/1999/xlink" width="200" height="200" viewBox="0 0 1250 1250"><symbol id="symbol_2c" viewBox="0 0 350 350"><rect x="200" y="100" width="150" height="50" rx="25" transform="rotate(90 200 100)" style="fill: #FF8460" /><rect x="100" y="150" width="150" height="50" rx="25" style="fill: #FF8460" /><circle cx="25" cy="176" r="20" style="fill: #B8A7D2" /><circle cx="175" cy="25" r="20" style="fill: #B8A7D2" /><circle cx="325" cy="176" r="20" style="fill: #B8A7D2" /><circle cx="175" cy="325" r="20" style="fill: #B8A7D2" /></symbol><symbol id="symbol_2d" viewBox="0 0 350 350"><rect x="200" y="100" width="150" height="50" rx="25" transform="rotate(90 200 100)" style="fill: #FF8460" /><rect x="100" y="150" width="150" height="50" rx="25" style="fill: #FF8460" /><circle cx="25" cy="176" r="20" style="fill: #B8A7D2" /><circle cx="175" cy="25" r="20" style="fill: #B8A7D2" /><circle cx="325" cy="176" r="20" style="fill: #B8A7D2" /><circle cx="175" cy="325" r="20" style="fill: #B8A7D2" /></symbol><symbol id="symbol_2e" viewBox="0 0 350 350"><rect x="200" y="100" width="150" height="50" rx="25" transform="rotate(90 200 100)" style="fill: #FF8460" /><rect x="100" y="150" width="150" height="50" rx="25" style="fill: #FF8460" /><circle cx="25" cy="176" r="20" style="fill: #B8A7D2" /><circle cx="175" cy="25" r="20" style="fill: #B8A7D2" /><circle cx="325" cy="176" r="20" style="fill: #B8A7D2" /><circle cx="175" cy="325" r="20" style="fill: #B8A7D2" /></symbol><symbol id="symbol_2f" viewBox="0 0 200 50"><circle cx="9.52381" cy="25.5238" r="8.27381" style="fill: white; stroke: #0E000D; stroke-width: 2.5" /><rect x="10.7739" y="17.25" width="155.833" height="16.5476" style="fill: #FF996A; stroke: #0E000D; stroke-width: 2.5" /><path d="M166.667 33.8572V17.1905H167.674L195.809 26.0477L167.695 33.8571L166.667 33.8572Z" style="fill: #B9A2CE; stroke: #0E000D; stroke-width: 2.38095" /><mask id="mask0_9_1285" maskUnits="userSpaceOnUse" x="165" y="16" width="35" height="20" style="mask-type: alpha"><path d="M166.726 33.7976V17.25H167.665L195.599 26.0441L167.687 33.7976L166.726 33.7976Z" style="fill: #B9A2CE; stroke: #0E000D; stroke-width: 2.5" />

</mask><g style="mask: url(#mask0_9_1285)"><rect x="186.905" y="20.762" width="14.2857" height="9.52381" style="fill: #0E000D" />

</g></symbol><symbol id="symbol_2g" viewBox="0 0 50 200"><path d="M32.25 33.4753V49.2501H19.75V35.9753L32.25 33.4753ZM22.25 38.0249V46.7501H29.75V36.5249L22.25 38.0249Z" style="fill-rule: evenodd; clip-rule: evenodd; fill: #0E000D" /><path d="M20 45.0425H32V59.5L45 74V81.668H6V74L20 59.5V45.0425Z" style="fill: #FC9469" /><path d="M7 82H44V188H7V82Z" style="fill: #BCA0CB" /><path d="M20.1777 45.6333H31.9924" style="stroke: #0E000D; stroke-width: 2.36293" /><path d="M6 81.668H44.9884" style="stroke: #201D24; stroke-width: 2.5" /><path d="M18.9276 44.25H33.2423V59.3246L46.2384 73.5022V189.25H4.75V73.4707L18.9276 59.2931V44.25ZM21.4276 46.75V60.3286L7.25 74.5062V186.75H43.7384V74.4747L30.7423 60.2971V46.75H21.4276Z" style="fill-rule: evenodd; clip-rule: evenodd; fill: #0E000D" /></symbol><symbol id="symbol_2h" viewBox="0 0 150 100"><rect x="7.18462" y="13.1846" width="136.231" height="74.6308" style="fill: #B8A8CF; stroke: black; stroke-width: 2.36923" /><mask id="mask0_9_1292" maskUnits="userSpaceOnUse" x="6" y="12" width="139" height="77" style="mask-type: alpha"><rect x="7.25" y="13.25" width="136.1" height="74.5" style="fill: #B8A8CF; stroke: black; stroke-width: 2.5" />

</mask><g style="mask: url(#mask0_9_1292)"><path d="M74.7078 54.3688L6.91738 13.25H142.498L74.7078 54.3688Z" style="fill: #FF966E; stroke: black; stroke-width: 2.5" />

</g></symbol><symbol id="symbol_2i" viewBox="0 0 100 100"><mask id="mask0_9_1336" maskUnits="userSpaceOnUse" x="0" y="0" width="100" height="100" style="mask-type: alpha"><rect width="100" height="100" style="fill: #D9D9D9" />

</mask><g style="mask: url(#mask0_9_1336)"><mask id="mask1_9_1336" maskUnits="userSpaceOnUse" x="-7" y="0" width="100" height="100" style="mask-type: alpha"><rect x="-7" width="100" height="100" style="fill: #D9D9D9" />

</mask><g style="mask: url(#mask1_9_1336)"><mask id="path-3-inside-1_9_1336" style="fill: white"><path d="M29.5919 24.0762C18.897 23.4084 9.85212 31.5315 9.45971 42.2401C9.08398 52.4935 9.97517 65.2827 15.0393 75.4422C25.1731 95.7723 32.3257 99.9915 39.2843 99.7922C42.9728 99.6866 45.1949 98.7969 46.4689 97.9841C47.5329 97.3052 48.7391 96.6198 49.9999 96.6035C51.2607 96.6198 52.4669 97.3052 53.5309 97.9841C54.8049 98.7969 57.027 99.6866 60.7155 99.7922C67.6741 99.9915 74.8267 95.7723 84.9605 75.4422C90.0246 65.2827 90.9158 52.4935 90.5401 42.2401C90.1477 31.5315 81.1028 23.4084 70.4079 24.0762C69.6518 24.1235 68.9193 24.1815 68.2221 24.252C66.2208 24.4543 63.1666 25.3889 60.489 26.3238C57.1028 27.506 53.5773 28.2892 49.9999 28.4186C46.4225 28.2892 42.897 27.506 39.5108 26.3238C36.8331 25.3889 33.7789 24.4543 31.7776 24.252C31.0805 24.1815 30.348 24.1235 29.5919 24.0762Z" style="fill-rule: evenodd; clip-rule: evenodd" />

</mask><path d="M29.5919 24.0762C18.897 23.4084 9.85212 31.5315 9.45971 42.2401C9.08398 52.4935 9.97517 65.2827 15.0393 75.4422C25.1731 95.7723 32.3257 99.9915 39.2843 99.7922C42.9728 99.6866 45.1949 98.7969 46.4689 97.9841C47.5329 97.3052 48.7391 96.6198 49.9999 96.6035C51.2607 96.6198 52.4669 97.3052 53.5309 97.9841C54.8049 98.7969 57.027 99.6866 60.7155 99.7922C67.6741 99.9915 74.8267 95.7723 84.9605 75.4422C90.0246 65.2827 90.9158 52.4935 90.5401 42.2401C90.1477 31.5315 81.1028 23.4084 70.4079 24.0762C69.6518 24.1235 68.9193 24.1815 68.2221 24.252C66.2208 24.4543 63.1666 25.3889 60.489 26.3238C57.1028 27.506 53.5773 28.2892 49.9999 28.4186C46.4225 28.2892 42.897 27.506 39.5108 26.3238C36.8331 25.3889 33.7789 24.4543 31.7776 24.252C31.0805 24.1815 30.348 24.1235 29.5919 24.0762Z" style="fill-rule: evenodd; clip-rule: evenodd; fill: #FF9A70" /><path d="M9.45971 42.2401L11.958 42.3316L9.45971 42.2401ZM29.5919 24.0762L29.7477 21.5811L29.5919 24.0762ZM15.0393 75.4422L17.2767 74.3269L15.0393 75.4422ZM39.2843 99.7922L39.2127 97.2932H39.2127L39.2843 99.7922ZM46.4689 97.9841L45.1242 95.8765L45.1242 95.8765L46.4689 97.9841ZM49.9999 96.6035L50.0323 94.1037L49.9999 94.1033L49.9675 94.1037L49.9999 96.6035ZM53.5309 97.9841L54.8756 95.8765L54.8756 95.8765L53.5309 97.9841ZM60.7155 99.7922L60.7871 97.2932H60.7871L60.7155 99.7922ZM84.9605 75.4422L87.1979 76.5574L84.9605 75.4422ZM90.5401 42.2401L88.0417 42.3316V42.3316L90.5401 42.2401ZM70.4079 24.0762L70.5637 26.5714L70.4079 24.0762ZM68.2221 24.252L68.4736 26.7393L68.2221 24.252ZM60.489 26.3238L61.313 28.6841L60.489 26.3238ZM49.9999 28.4186L49.9095 30.917L49.9999 30.9202L50.0903 30.917L49.9999 28.4186ZM39.5108 26.3238L38.6867 28.6841L39.5108 26.3238ZM31.7776 24.252L31.5262 26.7393L31.7776 24.252ZM11.958 42.3316C12.2985 33.0403 20.1321 25.9904 29.4361 26.5714L29.7477 21.5811C17.6619 20.8264 7.40573 30.0228 6.96139 42.1485L11.958 42.3316ZM17.2767 74.3269C12.4951 64.7341 11.5871 52.4545 11.958 42.3316L6.96139 42.1485C6.58087 52.5326 7.45522 65.8312 12.8019 76.5574L17.2767 74.3269ZM39.2127 97.2932C36.407 97.3736 33.5013 96.6207 30.035 93.4666C26.4508 90.2052 22.2946 84.3935 17.2767 74.3269L12.8019 76.5574C17.9178 86.8209 22.4048 93.2838 26.67 97.1648C31.053 101.153 35.203 102.41 39.3559 102.291L39.2127 97.2932ZM45.1242 95.8765C44.2848 96.4121 42.5171 97.1986 39.2127 97.2932L39.3558 102.291C43.4284 102.175 46.105 101.182 47.8136 100.092L45.1242 95.8765ZM49.9675 94.1037C47.9123 94.1303 46.1536 95.2197 45.1242 95.8765L47.8136 100.092C48.9121 99.3907 49.5659 99.1093 50.0323 99.1033L49.9675 94.1037ZM49.9675 99.1033C50.4339 99.1093 51.0877 99.3907 52.1862 100.092L54.8756 95.8765C53.8462 95.2197 52.0875 94.1303 50.0323 94.1037L49.9675 99.1033ZM52.1862 100.092C53.8948 101.182 56.5713 102.175 60.6439 102.291L60.7871 97.2932C57.4827 97.1986 55.715 96.4121 54.8756 95.8765L52.1862 100.092ZM60.6439 102.291C64.7968 102.41 68.9468 101.153 73.3298 97.1648C77.595 93.2838 82.082 86.8209 87.1979 76.5574L82.723 74.3269C77.7052 84.3935 73.549 90.2052 69.9648 93.4666C66.4984 96.6207 63.5928 97.3736 60.7871 97.2932L60.6439 102.291ZM87.1979 76.5574C92.5446 65.8312 93.4189 52.5326 93.0384 42.1485L88.0417 42.3316C88.4127 52.4545 87.5047 64.7341 82.723 74.3269L87.1979 76.5574ZM93.0384 42.1485C92.594 30.0228 82.3379 20.8264 70.2521 21.5811L70.5637 26.5714C79.8677 25.9904 87.7013 33.0403 88.0417 42.3316L93.0384 42.1485ZM70.2521 21.5811C69.4697 21.63 68.7049 21.6904 67.9707 21.7646L68.4736 26.7393C69.1338 26.6725 69.8339 26.617 70.5637 26.5714L70.2521 21.5811ZM67.9707 21.7646C65.6361 22.0006 62.3201 23.0365 59.6649 23.9635L61.313 28.6841C64.0132 27.7413 66.8056 26.9079 68.4736 26.7393L67.9707 21.7646ZM59.6649 23.9635C56.4596 25.0826 53.1842 25.8018 49.9095 25.9202L50.0903 30.917C53.9703 30.7766 57.746 29.9295 61.313 28.6841L59.6649 23.9635ZM38.6867 28.6841C42.2538 29.9295 46.0295 30.7766 49.9095 30.917L50.0903 25.9202C46.8156 25.8018 43.5402 25.0826 40.3349 23.9635L38.6867 28.6841ZM31.5262 26.7393C33.1942 26.9079 35.9866 27.7413 38.6867 28.6841L40.3349 23.9635C37.6797 23.0365 34.3637 22.0006 32.0291 21.7646L31.5262 26.7393ZM29.4361 26.5714C30.1659 26.617 30.866 26.6725 31.5262 26.7393L32.0291 21.7646C31.2949 21.6904 30.5301 21.63 29.7477 21.5811L29.4361 26.5714Z" style="fill: black; mask: url(#path-3-inside-1_9_1336)" /><path d="M61.1327 19.5581C57.8155 22.4546 53.2287 23.4175 49.3191 23.6113C47.3845 23.7072 45.6647 23.6124 44.4294 23.4933C44.0711 23.4588 43.7545 23.4223 43.4862 23.388C43.4884 23.1175 43.4949 22.7989 43.509 22.4392C43.5575 21.1991 43.6954 19.4822 44.0512 17.5783C44.7703 13.7304 46.3428 9.31536 49.66 6.41891C52.9772 3.52247 57.564 2.5595 61.4736 2.36569C63.4081 2.26979 65.1279 2.36466 66.3632 2.48374C66.7215 2.51828 67.0382 2.55477 67.3065 2.58903C67.3043 2.8595 67.2977 3.17817 67.2837 3.53786C67.2351 4.77796 67.0973 6.49481 66.7415 8.39878C66.0224 12.2466 64.4498 16.6617 61.1327 19.5581Z" style="fill: #FF9A70; stroke: black; stroke-width: 2.5" />




</g>


</g></symbol><symbol id="symbol_2j" viewBox="0 0 100 100"><circle cx="50" cy="50" r="48.75" style="fill: #B8A7D3; stroke: black; stroke-width: 2.5" /><path d="M28.6631 62.4751C29.7815 55.9889 35.4074 51.25 41.9893 51.25H58.011C64.5929 51.25 70.2188 55.9889 71.3371 62.4751L74.6525 81.7045H25.3477L28.6631 62.4751Z" style="fill: #FF9971; stroke: black; stroke-width: 2.5" /><path d="M36.4393 33.3932C35.8962 25.8502 41.8692 19.4316 49.4317 19.4316C56.9942 19.4316 62.9673 25.8502 62.4242 33.3932L61.9826 39.5257C61.5161 46.0046 56.1239 51.0226 49.6282 51.0226H49.2352C42.7396 51.0226 37.3473 46.0046 36.8808 39.5257L36.4393 33.3932Z" style="fill: white; stroke: black; stroke-width: 2.5" /></symbol><symbol id="symbol_2k" viewBox="0 0 50 50"><circle cx="25" cy="25" r="13" style="fill: #FF9A70" /></symbol><symbol id="symbol_2l" viewBox="0 0 50 50"><circle cx="25" cy="25" r="13" style="fill: #B8A7D2" /></symbol><symbol id="symbol_2m" viewBox="0 0 100 150"><path d="M13.25 21.25H77C81.8325 21.25 85.75 25.1675 85.75 30V120C85.75 124.832 81.8325 128.75 77 128.75H13.25V21.25Z" style="fill: #B8A7D2; stroke: black; stroke-width: 2.5" /><rect x="67" y="20" width="5" height="110" style="fill: white; stroke: black; stroke-width: 2.5" /><rect x="13.25" y="21.25" width="13.5" height="107.5" style="fill: #FF9A70; stroke: black; stroke-width: 2.5" /></symbol><g id="qr"><g id="qr_blocks"><use xlink:href="#symbol_2l" x="550" y="0" width="50" height="50" /><use xlink:href="#symbol_2k" x="600" y="0" width="50" height="50" /><use xlink:href="#symbol_2l" x="750" y="0" width="50" height="50" /><use xlink:href="#symbol_2k" x="450" y="50" width="50" height="50" /><use xlink:href="#symbol_2k" x="500" y="50" width="50" height="50" /><use xlink:href="#symbol_2k" x="550" y="50" width="50" height="50" /><use xlink:href="#symbol_2k" x="700" y="50" width="50" height="50" /><use xlink:href="#symbol_2l" x="400" y="100" width="50" height="50" /><use xlink:href="#symbol_2k" x="550" y="100" width="50" height="50" /><use xlink:href="#symbol_2h" x="650" y="100" width="150" height="100" /><use xlink:href="#symbol_2l" x="450" y="150" width="50" height="50" /><use xlink:href="#symbol_2k" x="500" y="150" width="50" height="50" /><use xlink:href="#symbol_2k" x="550" y="150" width="50" height="50" /><use xlink:href="#symbol_2k" x="800" y="150" width="50" height="50" /><use xlink:href="#symbol_2g" x="600" y="200" width="50" height="200" /><use xlink:href="#symbol_2l" x="750" y="200" width="50" height="50" /><use xlink:href="#symbol_2l" x="800" y="200" width="50" height="50" /><use xlink:href="#symbol_2l" x="550" y="250" width="50" height="50" /><use xlink:href="#symbol_2k" x="750" y="250" width="50" height="50" /><use xlink:href="#symbol_2l" x="400" y="300" width="50" height="50" /><use xlink:href="#symbol_2k" x="500" y="300" width="50" height="50" /><use xlink:href="#symbol_2l" x="700" y="300" width="50" height="50" /><use xlink:href="#symbol_2g" x="800" y="300" width="50" height="200" /><use xlink:href="#symbol_2l" x="400" y="350" width="50" height="50" /><use xlink:href="#symbol_2l" x="500" y="350" width="50" height="50" /><use xlink:href="#symbol_2l" x="0" y="400" width="50" height="50" /><use xlink:href="#symbol_2k" x="50" y="400" width="50" height="50" /><use xlink:href="#symbol_2k" x="100" y="400" width="50" height="50" /><use xlink:href="#symbol_2f" x="200" y="400" width="200" height="50" /><use xlink:href="#symbol_2k" x="400" y="400" width="50" height="50" /><use xlink:href="#symbol_2k" x="500" y="400" width="50" height="50" /><use xlink:href="#symbol_2l" x="650" y="400" width="50" height="50" /><use xlink:href="#symbol_2l" x="850" y="400" width="50" height="50" /><use xlink:href="#symbol_2g" x="900" y="400" width="50" height="200" /><use xlink:href="#symbol_2l" x="1100" y="400" width="50" height="50" /><use xlink:href="#symbol_2l" x="100" y="450" width="50" height="50" /><use xlink:href="#symbol_2k" x="350" y="450" width="50" height="50" /><use xlink:href="#symbol_2k" x="400" y="450" width="50" height="50" /><use xlink:href="#symbol_2k" x="450" y="450" width="50" height="50" /><use xlink:href="#symbol_2k" x="600" y="450" width="50" height="50" /><use xlink:href="#symbol_2l" x="650" y="450" width="50" height="50" /><use xlink:href="#symbol_2l" x="700" y="450" width="50" height="50" /><use xlink:href="#symbol_2k" x="1000" y="450" width="50" height="50" /><use xlink:href="#symbol_2k" x="1150" y="450" width="50" height="50" /><use xlink:href="#symbol_2k" x="0" y="500" width="50" height="50" /><use xlink:href="#symbol_2k" x="150" y="500" width="50" height="50" /><use xlink:href="#symbol_2k" x="300" y="500" width="50" height="50" /><use xlink:href="#symbol_2l" x="350" y="500" width="50" height="50" /><use xlink:href="#symbol_2l" x="500" y="500" width="50" height="50" /><use xlink:href="#symbol_2l" x="650" y="500" width="50" height="50" /><use xlink:href="#symbol_2l" x="750" y="500" width="50" height="50" /><use xlink:href="#symbol_2k" x="800" y="500" width="50" height="50" /><use xlink:href="#symbol_2k" x="850" y="500" width="50" height="50" /><use xlink:href="#symbol_2k" x="1050" y="500" width="50" height="50" /><use xlink:href="#symbol_2l" x="50" y="550" width="50" height="50" /><use xlink:href="#symbol_2g" x="100" y="550" width="50" height="200" /><use xlink:href="#symbol_2k" x="200" y="550" width="50" height="50" /><use xlink:href="#symbol_2k" x="350" y="550" width="50" height="50" /><use xlink:href="#symbol_2l" x="400" y="550" width="50" height="50" /><use xlink:href="#symbol_2k" x="450" y="550" width="50" height="50" /><use xlink:href="#symbol_2f" x="550" y="550" width="200" height="50" /><use xlink:href="#symbol_2k" x="950" y="550" width="50" height="50" /><use xlink:href="#symbol_2m" x="1150" y="550" width="100" height="150" /><use xlink:href="#symbol_2k" x="0" y="600" width="50" height="50" /><use xlink:href="#symbol_2k" x="200" y="600" width="50" height="50" /><use xlink:href="#symbol_2k" x="250" y="600" width="50" height="50" /><use xlink:href="#symbol_2k" x="300" y="600" width="50" height="50" /><use xlink:href="#symbol_2l" x="500" y="600" width="50" height="50" /><use xlink:href="#symbol_2l" x="700" y="600" width="50" height="50" /><use xlink:href="#symbol_2l" x="900" y="600" width="50" height="50" /><use xlink:href="#symbol_2l" x="950" y="600" width="50" height="50" /><use xlink:href="#symbol_2l" x="1100" y="600" width="50" height="50" /><use xlink:href="#symbol_2l" x="50" y="650" width="50" height="50" /><use xlink:href="#symbol_2l" x="250" y="650" width="50" height="50" /><use xlink:href="#symbol_2k" x="450" y="650" width="50" height="50" /><use xlink:href="#symbol_2f" x="550" y="650" width="200" height="50" /><use xlink:href="#symbol_2k" x="750" y="650" width="50" height="50" /><use xlink:href="#symbol_2k" x="1000" y="650" width="50" height="50" /><use xlink:href="#symbol_2l" x="0" y="700" width="50" height="50" /><use xlink:href="#symbol_2l" x="150" y="700" width="50" height="50" /><use xlink:href="#symbol_2l" x="200" y="700" width="50" height="50" /><use xlink:href="#symbol_2k" x="250" y="700" width="50" height="50" /><use xlink:href="#symbol_2k" x="300" y="700" width="50" height="50" /><use xlink:href="#symbol_2l" x="400" y="700" width="50" height="50" /><use xlink:href="#symbol_2k" x="500" y="700" width="50" height="50" /><use xlink:href="#symbol_2l" x="650" y="700" width="50" height="50" /><use xlink:href="#symbol_2l" x="700" y="700" width="50" height="50" /><use xlink:href="#symbol_2m" x="850" y="700" width="100" height="150" /><use xlink:href="#symbol_2k" x="1050" y="700" width="50" height="50" /><use xlink:href="#symbol_2k" x="1150" y="700" width="50" height="50" /><use xlink:href="#symbol_2l" x="50" y="750" width="50" height="50" /><use xlink:href="#symbol_2k" x="200" y="750" width="50" height="50" /><use xlink:href="#symbol_2k" x="350" y="750" width="50" height="50" /><use xlink:href="#symbol_2l" x="800" y="750" width="50" height="50" /><use xlink:href="#symbol_2k" x="950" y="750" width="50" height="50" /><use xlink:href="#symbol_2l" x="0" y="800" width="50" height="50" /><use xlink:href="#symbol_2k" x="250" y="800" width="50" height="50" /><use xlink:href="#symbol_2k" x="300" y="800" width="50" height="50" /><use xlink:href="#symbol_2l" x="350" y="800" width="50" height="50" /><use xlink:href="#symbol_2l" x="450" y="800" width="50" height="50" /><use xlink:href="#symbol_2k" x="500" y="800" width="50" height="50" /><use xlink:href="#symbol_2l" x="650" y="800" width="50" height="50" /><use xlink:href="#symbol_2g" x="800" y="800" width="50" height="200" /><use xlink:href="#symbol_2k" x="950" y="800" width="50" height="50" /><use xlink:href="#symbol_2k" x="1000" y="800" width="50" height="50" /><use xlink:href="#symbol_2l" x="1100" y="800" width="50" height="50" /><use xlink:href="#symbol_2k" x="1200" y="800" width="50" height="50" /><use xlink:href="#symbol_2l" x="400" y="850" width="50" height="50" /><use xlink:href="#symbol_2k" x="500" y="850" width="50" height="50" /><use xlink:href="#symbol_2l" x="600" y="850" width="50" height="50" /><use xlink:href="#symbol_2l" x="650" y="850" width="50" height="50" /><use xlink:href="#symbol_2k" x="700" y="850" width="50" height="50" /><use xlink:href="#symbol_2l" x="1000" y="850" width="50" height="50" /><use xlink:href="#symbol_2l" x="1150" y="850" width="50" height="50" /><use xlink:href="#symbol_2h" x="400" y="900" width="150" height="100" /><use xlink:href="#symbol_2j" x="550" y="900" width="100" height="100" /><use xlink:href="#symbol_2l" x="900" y="900" width="50" height="50" /><use xlink:href="#symbol_2g" x="1000" y="900" width="50" height="200" /><use xlink:href="#symbol_2k" x="1050" y="900" width="50" height="50" /><use xlink:href="#symbol_2i" x="1150" y="900" width="100" height="100" /><use xlink:href="#symbol_2k" x="650" y="950" width="50" height="50" /><use xlink:href="#symbol_2k" x="700" y="950" width="50" height="50" /><use xlink:href="#symbol_2l" x="750" y="950" width="50" height="50" /><use xlink:href="#symbol_2k" x="1050" y="950" width="50" height="50" /><use xlink:href="#symbol_2k" x="400" y="1000" width="50" height="50" /><use xlink:href="#symbol_2k" x="450" y="1000" width="50" height="50" /><use xlink:href="#symbol_2l" x="500" y="1000" width="50" height="50" /><use xlink:href="#symbol_2k" x="600" y="1000" width="50" height="50" /><use xlink:href="#symbol_2g" x="800" y="1000" width="50" height="200" /><use xlink:href="#symbol_2l" x="850" y="1000" width="50" height="50" /><use xlink:href="#symbol_2l" x="900" y="1000" width="50" height="50" /><use xlink:href="#symbol_2l" x="950" y="1000" width="50" height="50" /><use xlink:href="#symbol_2k" x="1100" y="1000" width="50" height="50" /><use xlink:href="#symbol_2l" x="450" y="1050" width="50" height="50" /><use xlink:href="#symbol_2l" x="550" y="1050" width="50" height="50" /><use xlink:href="#symbol_2l" x="600" y="1050" width="50" height="50" /><use xlink:href="#symbol_2i" x="650" y="1050" width="100" height="100" /><use xlink:href="#symbol_2k" x="900" y="1050" width="50" height="50" /><use xlink:href="#symbol_2k" x="950" y="1050" width="50" height="50" /><use xlink:href="#symbol_2k" x="400" y="1100" width="50" height="50" /><use xlink:href="#symbol_2k" x="450" y="1100" width="50" height="50" /><use xlink:href="#symbol_2l" x="750" y="1100" width="50" height="50" /><use xlink:href="#symbol_2l" x="850" y="1100" width="50" height="50" /><use xlink:href="#symbol_2l" x="900" y="1100" width="50" height="50" /><use xlink:href="#symbol_2l" x="1050" y="1100" width="50" height="50" /><use xlink:href="#symbol_2l" x="1200" y="1100" width="50" height="50" /><use xlink:href="#symbol_2k" x="400" y="1150" width="50" height="50" /><use xlink:href="#symbol_2l" x="500" y="1150" width="50" height="50" /><use xlink:href="#symbol_2l" x="600" y="1150" width="50" height="50" /><use xlink:href="#symbol_2h" x="650" y="1150" width="150" height="100" /><use xlink:href="#symbol_2k" x="850" y="1150" width="50" height="50" /><use xlink:href="#symbol_2l" x="1000" y="1150" width="50" height="50" /><use xlink:href="#symbol_2l" x="1050" y="1150" width="50" height="50" /><use xlink:href="#symbol_2k" x="1200" y="1150" width="50" height="50" /><use xlink:href="#symbol_2k" x="400" y="1200" width="50" height="50" /><use xlink:href="#symbol_2k" x="450" y="1200" width="50" height="50" /><use xlink:href="#symbol_2l" x="500" y="1200" width="50" height="50" /><use xlink:href="#symbol_2k" x="1000" y="1200" width="50" height="50" /><use xlink:href="#symbol_2l" x="1050" y="1200" width="50" height="50" /><use xlink:href="#symbol_2l" x="1150" y="1200" width="50" height="50" /><use xlink:href="#symbol_2k" x="1200" y="1200" width="50" height="50" /></g><g id="qr_eyes"><use xlink:href="#symbol_2c" x="0" y="0" width="350" height="350" /><use xlink:href="#symbol_2d" x="900" y="0" width="350" height="350" /><use xlink:href="#symbol_2e" x="0" y="900" width="350" height="350" /></g></g></svg>